<svg width="99" height="25" viewBox="0 0 99 25" fill="none" xmlns="http://www.w3.org/2000/svg">
<path d="M9.368 1.344C13.3147 1.344 16.248 2.304 18.168 4.224C20.088 6.12267 21.048 8.85333 21.048 12.416C21.048 14.7413 20.5787 16.7787 19.64 18.528C18.7013 20.256 17.336 21.6 15.544 22.56C13.7733 23.52 11.6187 24 9.08 24C8.76 24 8.32267 23.9893 7.768 23.968C7.23467 23.9467 6.68 23.936 6.104 23.936C5.528 23.9147 5.00533 23.904 4.536 23.904C3.72533 23.904 2.92533 23.9147 2.136 23.936C1.368 23.936 0.738667 23.9573 0.248 24V23.36C0.973333 23.3173 1.51733 23.232 1.88 23.104C2.24267 22.976 2.47733 22.72 2.584 22.336C2.712 21.952 2.776 21.376 2.776 20.608V4.736C2.776 3.94666 2.712 3.37067 2.584 3.008C2.47733 2.624 2.232 2.368 1.848 2.24C1.48533 2.09067 0.952 2.00533 0.248 1.984V1.344C0.738667 1.36533 1.368 1.39733 2.136 1.44C2.92533 1.46133 3.704 1.46133 4.472 1.44C5.24 1.41867 6.09333 1.39733 7.032 1.376C7.992 1.35467 8.77067 1.344 9.368 1.344ZM8.824 1.92C7.84267 1.92 7.20267 2.10133 6.904 2.464C6.60533 2.82667 6.456 3.56267 6.456 4.672V20.672C6.456 21.7813 6.60533 22.5173 6.904 22.88C7.224 23.2427 7.87467 23.424 8.856 23.424C11.0107 23.424 12.6853 23.008 13.88 22.176C15.0747 21.3227 15.9173 20.0853 16.408 18.464C16.8987 16.8427 17.144 14.8693 17.144 12.544C17.144 10.1547 16.8773 8.18133 16.344 6.624C15.8107 5.04533 14.936 3.872 13.72 3.104C12.5253 2.31466 10.8933 1.92 8.824 1.92ZM32.4215 1.344V1.984C31.7175 2.00533 31.1842 2.09067 30.8215 2.24C30.4588 2.368 30.2135 2.624 30.0855 3.008C29.9575 3.37067 29.8935 3.94666 29.8935 4.736V20.608C29.8935 21.376 29.9575 21.952 30.0855 22.336C30.2135 22.72 30.4588 22.976 30.8215 23.104C31.1842 23.232 31.7175 23.3173 32.4215 23.36V24C31.9095 23.9573 31.2588 23.936 30.4695 23.936C29.7015 23.9147 28.9122 23.904 28.1015 23.904C27.2055 23.904 26.3628 23.9147 25.5735 23.936C24.8055 23.936 24.1762 23.9573 23.6855 24V23.36C24.4108 23.3173 24.9548 23.232 25.3175 23.104C25.6802 22.976 25.9148 22.72 26.0215 22.336C26.1495 21.952 26.2135 21.376 26.2135 20.608V4.736C26.2135 3.94666 26.1495 3.37067 26.0215 3.008C25.9148 2.624 25.6695 2.368 25.2855 2.24C24.9228 2.09067 24.3895 2.00533 23.6855 1.984V1.344C24.1762 1.36533 24.8055 1.38667 25.5735 1.408C26.3628 1.42933 27.2055 1.44 28.1015 1.44C28.9122 1.44 29.7015 1.42933 30.4695 1.408C31.2588 1.38667 31.9095 1.36533 32.4215 1.344ZM44.4723 1.216L52.2803 21.312C52.5789 22.1013 52.9203 22.6347 53.3043 22.912C53.7096 23.1893 54.0829 23.3387 54.4243 23.36V24C53.9123 23.9573 53.3043 23.936 52.6003 23.936C51.9176 23.9147 51.2243 23.904 50.5203 23.904C49.6243 23.904 48.7923 23.9147 48.0243 23.936C47.2563 23.936 46.6376 23.9573 46.1683 24V23.36C47.2563 23.3173 47.9389 23.136 48.2163 22.816C48.5149 22.4747 48.4509 21.76 48.0243 20.672L42.2643 5.12L42.7763 4.544L37.4643 18.432C37.0803 19.392 36.8456 20.192 36.7603 20.832C36.6963 21.472 36.7496 21.9733 36.9203 22.336C37.1123 22.6987 37.4323 22.9547 37.8802 23.104C38.3283 23.2533 38.8829 23.3387 39.5443 23.36V24C38.9043 23.9573 38.2536 23.936 37.5923 23.936C36.9523 23.9147 36.3443 23.904 35.7682 23.904C35.2563 23.904 34.7976 23.9147 34.3923 23.936C34.0083 23.936 33.6562 23.9573 33.3362 24V23.36C33.7843 23.2533 34.2323 22.9867 34.6803 22.56C35.1283 22.1333 35.5549 21.408 35.9603 20.384L43.3843 1.216C43.5549 1.216 43.7363 1.216 43.9283 1.216C44.1203 1.216 44.3016 1.216 44.4723 1.216ZM47.8323 14.784V15.424H38.2963L38.6163 14.784H47.8323ZM75.2585 1.344V1.984C74.5332 2.02667 73.9892 2.15466 73.6265 2.368C73.2638 2.58133 73.0185 2.93333 72.8905 3.424C72.7838 3.89333 72.7305 4.56533 72.7305 5.44V24.128C72.5598 24.128 72.3892 24.128 72.2185 24.128C72.0478 24.128 71.8665 24.128 71.6745 24.128L58.1065 4.416V19.776C58.1065 20.672 58.1705 21.376 58.2985 21.888C58.4265 22.3787 58.7038 22.7307 59.1305 22.944C59.5572 23.1573 60.2078 23.296 61.0825 23.36V24C60.6772 23.9573 60.1545 23.936 59.5145 23.936C58.8958 23.9147 58.3092 23.904 57.7545 23.904C57.2212 23.904 56.6878 23.9147 56.1545 23.936C55.6212 23.936 55.1838 23.9573 54.8425 24V23.36C55.5465 23.296 56.0798 23.168 56.4425 22.976C56.8052 22.7627 57.0505 22.4107 57.1785 21.92C57.3065 21.4293 57.3705 20.7573 57.3705 19.904V4.736C57.3705 3.94666 57.3065 3.37067 57.1785 3.008C57.0505 2.624 56.8052 2.368 56.4425 2.24C56.0798 2.09067 55.5465 2.00533 54.8425 1.984V1.344C55.1838 1.36533 55.6212 1.38667 56.1545 1.408C56.6878 1.42933 57.2212 1.44 57.7545 1.44C58.2238 1.44 58.6825 1.42933 59.1305 1.408C59.5785 1.38667 59.9732 1.36533 60.3145 1.344L71.9945 18.048V5.568C71.9945 4.65067 71.9198 3.94667 71.7705 3.456C71.6425 2.96533 71.3652 2.61333 70.9385 2.4C70.5118 2.16533 69.8718 2.02667 69.0185 1.984V1.344C69.4025 1.36533 69.9145 1.38667 70.5545 1.408C71.1945 1.42933 71.7918 1.44 72.3465 1.44C72.8798 1.44 73.4132 1.42933 73.9465 1.408C74.4798 1.38667 74.9172 1.36533 75.2585 1.344ZM88.2538 0.895998C90.3444 0.895998 92.1791 1.35467 93.7578 2.272C95.3578 3.18933 96.5951 4.512 97.4698 6.24C98.3444 7.94667 98.7818 10.0267 98.7818 12.48C98.7818 14.8693 98.3338 16.96 97.4378 18.752C96.5418 20.544 95.2938 21.9413 93.6938 22.944C92.0938 23.9467 90.2698 24.448 88.2218 24.448C86.1098 24.448 84.2644 23.9893 82.6858 23.072C81.1071 22.1547 79.8804 20.832 79.0058 19.104C78.1311 17.376 77.6938 15.296 77.6938 12.864C77.6938 10.4747 78.1418 8.384 79.0378 6.592C79.9551 4.8 81.2031 3.40267 82.7818 2.4C84.3604 1.39733 86.1844 0.895998 88.2538 0.895998ZM88.1258 1.472C86.8031 1.472 85.6511 1.952 84.6698 2.912C83.6884 3.872 82.9311 5.19467 82.3978 6.88C81.8644 8.56533 81.5978 10.5173 81.5978 12.736C81.5978 14.9973 81.8964 16.9707 82.4938 18.656C83.0911 20.32 83.9018 21.6107 84.9258 22.528C85.9498 23.424 87.0911 23.872 88.3498 23.872C89.6724 23.872 90.8138 23.392 91.7738 22.432C92.7551 21.472 93.5124 20.1493 94.0458 18.464C94.6004 16.7573 94.8778 14.8053 94.8778 12.608C94.8778 10.3253 94.5684 8.352 93.9498 6.688C93.3524 5.024 92.5418 3.744 91.5178 2.848C90.5151 1.93067 89.3844 1.472 88.1258 1.472Z" fill="#2E2B28"/>
</svg>
