<svg width="28" height="28" viewBox="0 0 28 28" fill="none" xmlns="http://www.w3.org/2000/svg">
<g clip-path="url(#clip0_150_910)">
<path d="M14.0001 27.4986C13.8609 27.4986 13.7275 27.4433 13.6291 27.3449C13.5307 27.2465 13.4754 27.1131 13.4754 26.974C13.4754 14.9906 13.0097 14.5249 1.02631 14.5249C0.957234 14.5251 0.88878 14.5118 0.824878 14.4855C0.760976 14.4593 0.702885 14.4207 0.653939 14.372C0.604993 14.3232 0.566155 14.2653 0.539654 14.2015C0.513154 14.1377 0.499512 14.0693 0.499512 14.0002C0.499512 13.9311 0.513154 13.8627 0.539654 13.7989C0.566155 13.7351 0.604993 13.6772 0.653939 13.6285C0.702885 13.5797 0.760976 13.5411 0.824878 13.5149C0.88878 13.4886 0.957234 13.4753 1.02631 13.4756C13.0097 13.4756 13.4754 13.0099 13.4754 1.02646C13.4754 0.887311 13.5307 0.753862 13.6291 0.65547C13.7275 0.557077 13.8609 0.501801 14.0001 0.501801C14.1392 0.501801 14.2727 0.557077 14.3711 0.65547C14.4695 0.753862 14.5247 0.887311 14.5247 1.02646C14.5247 13.0099 14.9904 13.4756 26.9738 13.4756C27.0429 13.4753 27.1114 13.4886 27.1753 13.5149C27.2392 13.5411 27.2972 13.5797 27.3462 13.6285C27.3951 13.6772 27.434 13.7351 27.4605 13.7989C27.487 13.8627 27.5006 13.9311 27.5006 14.0002C27.5006 14.0693 27.487 14.1377 27.4605 14.2015C27.434 14.2653 27.3951 14.3232 27.3462 14.372C27.2972 14.4207 27.2392 14.4593 27.1753 14.4855C27.1114 14.5118 27.0429 14.5251 26.9738 14.5249C14.9904 14.5249 14.5247 14.9906 14.5247 26.974C14.5247 27.1131 14.4694 27.2465 14.371 27.3449C14.2726 27.4433 14.1392 27.4986 14.0001 27.4986ZM9.47807 14.0002C10.6244 14.1512 11.6889 14.6762 12.5065 15.4938C13.3241 16.3113 13.8491 17.3759 14.0001 18.5222C14.151 17.3759 14.676 16.3113 15.4936 15.4938C16.3112 14.6762 17.3757 14.1512 18.5221 14.0002C17.3757 13.8492 16.3112 13.3243 15.4936 12.5067C14.676 11.6891 14.151 10.6246 14.0001 9.47821C13.8491 10.6246 13.3241 11.6891 12.5065 12.5066C11.6889 13.3242 10.6244 13.8492 9.47807 14.0002Z" fill="#E1CBA9"/>
</g>
<defs>
<clipPath id="clip0_150_910">
<rect width="28" height="28" fill="white"/>
</clipPath>
</defs>
</svg>
